<?xml version="1.0" encoding="utf-8"?>
<svg xmlns="http://www.w3.org/2000/svg" viewBox="0 0 1024 1024">
  <path fill="#16523B" d="M 0 0 L 562.26 0 L 568.731 0 L 1024 0 L 1024 513.719 L 1024 524.826 L 1024 1024 L 503.272 1024 L 495.15 1024 L 0 1024 L 0 480.968 L 0 474.217 L 0 0 Z" style="stroke-width: 1; transform-origin: 506.168px 513.444px;"/>
  <path fill="#75E6A2" d="M 800.369 177.27 C 807.758 182.17 814.939 188.4 821.894 193.96 C 833.693 203.46 847.066 212.43 855.434 225.34 C 860.197 232.69 863.78 240.706 869.074 247.796 C 877.373 258.908 889.262 267.974 896.923 279.456 C 909.887 298.887 916.919 321.794 927.526 342.486 C 942.433 370.418 948.728 401.37 954.423 432.246 C 956.393 442.932 959.266 453.028 960.412 463.981 C 961.836 477.596 959.959 490.391 959.63 503.955 C 959.837 517.623 961.719 531.198 962.004 544.886 C 962.271 557.707 960.473 569.862 959.006 582.541 C 958.353 587.134 959.113 592.412 958.431 596.927 C 956.129 612.155 954.858 628.406 952.03 643.449 C 950.712 650.457 943.654 659.091 940.857 665.475 C 937.531 673.068 935.93 681.089 931.834 688.359 C 925.909 699.182 920.181 710.504 913.315 720.764 C 908.552 727.881 903.091 734.538 898.38 741.733 C 890.16 754.286 883.885 767.864 875.578 780.329 C 870.076 788.321 862.846 796.142 856.916 803.892 C 855.526 806.057 848.785 811.824 847.885 813.681 C 839.473 831.04 826.11 837.358 810.602 847.373 C 805.439 850.708 801.967 855.737 797.771 860.693 C 788.191 872.007 771.458 876.833 759.269 884.978 C 748.155 891.832 739.291 899.156 728.384 905.819 C 720.673 910.53 711.172 913.207 703.086 917.249 C 662.614 938.358 616.675 943.882 572.09 950.317 C 565.096 951.327 558.208 953.787 551.279 955.643 C 545.015 957.291 538.621 958.403 532.168 958.967 C 507.512 961.273 483.345 955.226 459.246 950.988 C 440.987 947.778 423.146 945.002 404.703 943.217 C 396.756 942.448 383.893 938.472 376.115 936.138 C 361.667 931.802 347.601 919.856 334.281 912.698 C 330.055 910.362 325.248 908.871 321.193 906.75 C 307.565 899.621 293.342 893.076 280.113 885.186 C 276.66 883.127 269.427 876.05 265.378 873.033 L 228.926 845.783 C 222.604 841.054 216.478 836.773 210.283 831.829 C 198.515 822.44 191.29 811.559 181.027 800.825 C 173.469 792.921 165.203 785.549 158.135 777.354 C 152.599 770.936 148.147 763.605 142.802 756.93 C 139.021 752.208 132.18 745.75 129.083 740.936 C 121.313 728.856 116.006 714.568 110.258 701.497 C 105.775 691.302 100.784 681.135 96.708 670.755 C 94.333 664.708 92.565 658.159 90.1 651.994 C 84.945 639.101 79.293 624.304 76.656 610.6 C 73.922 596.389 73.843 580.732 71.37 566.09 C 69.669 556.026 65.88 547.562 64.92 537.781 C 64.292 532.668 66.011 525.584 65.562 520.692 C 63.824 501.738 67.47 483.651 69.558 464.911 C 70.328 457.993 70.663 451.63 70.611 444.601 C 70.544 435.568 69.409 426.061 70.765 417.137 C 71.956 410.136 76.049 401.642 78.12 394.789 C 82.157 381.432 85.667 369.487 92.347 357.1 C 95.648 350.98 99.909 345.313 103.175 339.318 C 104.959 336.046 106.933 330.812 108.609 327.192 C 112.411 318.982 116.284 310.858 120.669 302.937 C 129.705 286.069 141.32 270.808 152.311 255.307 C 165.13 237.226 177.937 220.8 193.784 205.25 C 196.949 202.14 200.046 197.65 203.145 194.24 C 211.55 185.02 222.547 179.88 232.394 172.58 C 236.977 169.13 243.469 161.02 247.35 156.32 C 259.899 141.13 282.397 133.13 300.013 125.09 C 317.051 117.32 334.227 108.07 351.649 100.85 C 369.341 93.52 390.21 87.48 408.939 83.29 C 419.801 80.86 432.885 79.36 443.982 77.43 C 449.538 76.47 457.522 76.46 462.889 75.24 C 475.969 72.27 484.675 68.03 498.615 67.13 C 518.73 65.83 536.424 70.95 556.193 72.93 C 569.503 74.26 581.89 73.27 595.182 74.02 C 607.837 74.73 617.603 78.53 629.718 81.18 C 635.837 82.52 642.44 82.57 648.822 84.29 C 661.052 87.61 669.594 95.17 680.342 101.33 C 688.675 106.1 697.388 107.89 705.576 111.76 C 708.98 113.37 717.059 118.59 720.734 120.84 C 726.55 124.41 735.686 128.85 740.967 132.49 C 756.675 143.34 776.188 157.3 790.434 169.75 C 792.04 172.16 794.954 174.61 797.535 175.8 C 798.587 176.41 799.215 176.83 800.369 177.27 Z" style="stroke-width: 1; transform-origin: 506.168px 513.444px;"/>
  <path fill="#0C2318" d="M 499.369 77.71 C 499.781 77.68 500.193 77.65 500.605 77.62 C 519.39 76.41 538.056 82.16 556.726 83.86 C 571.739 85.23 585.881 83.7 600.721 85.29 C 609.992 86.29 618.913 90.12 627.884 91.96 C 634.476 93.31 640.436 92.86 647.31 94.9 C 657.815 98.02 664.44 104.99 673.657 109.93 C 678.474 112.51 685.226 115.01 690.333 117.09 C 693.586 118.41 698.375 119.78 701.388 121.39 C 704.999 123.11 709.086 127.02 712.546 128.65 C 736.844 140.06 756.606 156.96 777.791 173.06 C 780.863 175.39 782.731 178.4 785.313 180.32 C 790.859 184.57 797.436 188.16 802.879 192.48 C 812.373 200.01 822.135 207.76 831.476 215.46 C 837.18 220.16 843.422 226.28 847.266 232.49 C 851.77 239.776 855.022 248.043 860.5 254.75 C 869.351 266.207 881.715 276.479 889.497 288.274 C 898.011 301.179 904.575 318.043 910.574 332.54 C 915.151 343.598 922.453 355.165 926.224 365.545 C 934.241 387.614 939.357 411.205 943.659 434.233 C 945.73 445.316 948.69 455.318 949.665 466.808 C 950.722 479.271 948.894 490.858 948.865 503.076 C 948.84 513.346 949.884 525.409 950.666 535.723 C 951.934 552.466 949.646 566.061 947.826 582.517 C 947.332 586.988 947.715 592.874 947.18 597.524 C 946.891 604.988 944.115 615.475 943.981 622.647 C 943.666 639.494 938.845 648.133 930.176 662.113 C 927.693 666.118 926.519 675.041 923.793 679.885 C 917.363 691.309 911.397 703.369 904.174 714.362 C 897.337 724.215 890.09 733.746 883.831 743.984 C 875.73 757.24 869.84 771.54 859.293 783.144 C 855.036 787.827 851.29 793.295 846.972 797.983 C 843.774 801.455 840.445 804.908 837.395 808.509 C 834.43 812.275 833.023 817.822 829.543 821.305 C 821.134 829.472 809.494 833.725 800.135 841.28 C 794.189 846.081 791.923 851.006 787.473 855.599 C 780.076 863.235 764.434 868.636 754.905 874.776 C 743.879 881.881 733.855 889.785 722.834 896.468 C 715.278 901.05 704.571 905.092 696.317 908.784 C 692.573 910.459 684.891 914.424 681.422 915.677 C 667.476 920.714 652.368 925.605 638.01 929.288 C 632.633 930.668 622.994 931.887 617.194 932.847 C 601.351 935.522 585.466 937.946 569.546 940.119 C 561.577 941.27 555.944 943.415 548.26 945.503 C 541.181 947.427 534.186 948.267 526.876 948.594 C 505.936 949.696 479.309 943.232 458.443 940.175 C 448.05 938.653 437.471 936.536 426.96 935.091 C 420.677 934.227 412.412 933.811 406.522 932.828 C 399.121 931.593 387.818 928.946 380.643 926.689 C 367.562 922.574 353.867 911.529 341.636 904.848 C 336.207 901.883 330.664 900.111 325.927 897.607 C 313.061 890.804 299.166 884.109 286.729 876.718 C 282.391 874.141 274.041 866.118 269.209 862.517 L 236.499 838.008 C 229.696 832.976 223.241 828.627 216.523 823.335 C 204.718 814.038 198.808 803.381 188.366 792.886 C 180.453 784.933 171.779 777.211 164.646 768.588 C 160.832 764.564 157.067 755.91 153.289 752.336 C 136.471 736.424 128.737 719.623 120.955 698.187 C 118.843 692.37 114.779 684.668 112.106 678.425 C 107.378 667.384 103.338 655.95 99.108 644.684 C 94.723 633.291 90.208 621.258 87.705 609.269 C 84.245 595.032 85.321 577.177 82.036 563.253 C 78.243 547.171 74.343 536.432 76.995 519.525 C 77.331 517.386 76.272 512.542 76.229 510.06 C 75.963 494.656 79.186 478.949 80.723 463.581 C 81.447 455.869 81.724 448.122 81.552 440.378 C 81.429 434.74 80.69 423.152 81.673 418.024 C 83.09 411.124 86.635 404.387 88.659 397.723 C 93.133 382.987 97.186 369.085 105.837 356.06 C 111.827 347.043 115.983 336.97 120.505 327.176 C 124.173 319.234 128.603 311.371 132.731 303.649 C 140.904 288.515 151.259 274.981 161.673 261.365 C 171.657 247.749 179.787 234.956 191.938 222.76 C 199.601 215.07 207.951 204.43 215.987 197.14 C 223.398 190.41 233.691 185.68 241.745 178.85 C 247.673 173.93 251.921 167.6 256.779 161.71 C 262.18 155.16 269.881 151.68 277.098 147.42 C 285.745 142.32 295.442 139.11 304.479 134.8 C 323.171 125.87 342.039 116.2 361.271 108.46 C 387.527 97.89 415.643 92.22 443.542 88.07 C 450.783 87 458.038 86.63 465.262 85.51 C 478.799 82.74 484.701 79.04 499.369 77.71 Z" style="stroke-width: 1; transform-origin: 506.168px 513.444px;"/>
  <path d="M 508.443 395.213 C 510.787 395.064 513.111 395.12 515.457 395.198 C 548.009 396.283 572.316 406.888 594.619 430.771 C 619.007 456.888 632.338 487.747 628.062 523.836 C 626.578 536.355 623.111 548.007 622.665 560.718 C 620.521 563.644 617.952 566.281 615.706 569.134 C 610.958 575.161 606.5 581.416 601.727 587.429 C 586.478 606.639 564.889 621.362 540.341 625.222 C 531.997 626.534 523.62 626.349 515.264 627.317 C 502.148 631.454 492.509 628.707 479.846 624.24 C 456.244 615.917 425.571 597.845 414.022 574.744 C 410.929 568.558 411.696 561.591 408.945 556.207 C 407.372 553.129 404.95 552.608 401.905 551.698 C 397.849 541.16 397.377 529.541 396.658 518.382 C 394.789 489.391 401.323 461.962 421.072 439.781 C 429.416 430.408 439.982 421.068 450.673 414.374 C 454.228 412.148 458.261 410.451 462.052 408.664 C 476.834 401.694 491.985 396.135 508.443 395.213 Z" style="stroke-width: 1; fill: rgb(173, 173, 173); transform-origin: 506.168px 513.444px;"/>
  <path d="M 507.866 447.221 C 516.675 447.368 531.182 449.113 538.231 454.718 C 540.614 456.614 540.396 459.523 540.658 462.307 C 547.8 468.082 557.256 470.452 564.418 476.022 C 571.253 481.336 574.94 494.067 576.031 502.313 C 578.312 519.564 573.321 539.248 562.671 553.066 C 551.659 567.352 536.14 574.188 518.625 576.46 C 502.725 576.752 485.315 574.352 473.166 563.043 C 468.045 558.277 466.727 553.749 466.529 547.029 C 462.704 546.493 459.07 546.042 456.017 543.423 C 450.095 538.342 448.621 527.124 448.137 519.788 C 446.969 502.125 451.346 484.018 463.298 470.664 C 474.524 458.12 490.771 448.184 507.866 447.221 Z" style="stroke-width: 1; fill: rgb(12, 35, 24); transform-origin: 506.168px 513.444px;"/>
  <path d="M 488.735 117.71 C 497.157 117.3 520.263 119.49 523.603 128.61 C 530.938 148.39 538.16 168.23 544.514 188.35 C 549.126 202.95 552.81 219.17 558.93 233.205 C 572.425 264.148 581.539 296.277 594.97 327.211 C 597.7 335.854 596.928 343.348 586.348 336.362 C 573.683 328 559.7 318.665 545.716 312.735 C 537.848 309.399 529.108 307.485 521.291 303.974 C 515.485 301.367 510.476 296.838 504.735 294.047 C 488.986 286.197 473.762 279.201 458.483 270.389 C 453.412 269.132 445.906 265.127 441.201 262.532 C 422.687 252.324 403.701 244.678 384.256 236.589 C 368.948 230.22 354.535 221.96 338.361 217.36 C 335.289 216.49 330.745 212.57 327.508 211.49 C 312.198 205.02 294.244 199.72 279.543 192.33 C 283.659 184.71 298.348 174.62 307.222 173.64 C 312.875 173.01 316.829 173.89 322.6 171.47 C 327.91 169.99 331.661 162.47 336.088 160.56 C 352.999 153.28 370.63 147 386.86 138.3 C 389.451 136.91 398.08 135.66 401.176 134.6 C 412.462 130.76 423.518 127.56 435.269 125.62 C 453.483 121.5 470.029 118.63 488.735 117.71 Z" style="stroke-width: 1; stroke: rgb(58, 56, 127); fill: rgb(61, 59, 135); transform-origin: 506.168px 513.444px;"/>
  <path d="M 439.764 696.13 C 449.128 696.898 454.461 703.839 462.365 707.718 C 469.002 710.976 476.585 711.044 483.254 714.057 C 488.152 716.27 492.202 720.147 496.947 722.668 C 502.422 725.576 508.158 728.064 513.7 730.857 C 524.221 736.159 534.63 741.676 545.251 746.778 C 555.167 751.541 565.305 755.821 575.222 760.576 C 595.129 770.121 614.896 780.083 634.956 789.29 C 659.064 800.353 683.308 810.775 707.172 822.401 C 714.388 825.916 721.579 829.522 728.872 832.877 C 732.486 834.539 739.628 836.58 742.431 838.972 C 743.082 839.527 742.89 839.865 742.93 840.651 C 740.141 843.882 716.011 855.191 710.392 858.264 C 703.769 861.887 697.906 866.874 690.805 869.476 C 684.21 872.249 677.168 874.079 670.646 877.024 C 666.755 878.781 663.264 881.73 659.238 883.104 C 648.73 886.69 637.506 888.495 626.778 891.366 C 617.663 893.804 608.699 896.719 599.542 899.068 C 590.868 901.293 582.063 902.957 573.364 905.087 C 562.581 907.728 551.564 910.897 540.503 912.095 C 531.996 913.016 522.738 912.669 514.363 910.909 C 508.535 906.488 504.473 896.897 501.476 890.303 C 497.708 882.014 494.73 873.53 491.434 865.056 C 488.294 856.982 484.904 848.982 482.056 840.799 C 477.461 827.593 473.312 814.435 468.123 801.428 C 463.477 789.782 457.966 778.671 453.006 767.193 C 447.794 755.133 443.244 742.502 438.619 730.19 C 436.071 723.404 432.561 716.034 430.923 709.012 C 430.255 706.151 430.415 702.962 432.095 700.465 C 433.975 697.673 436.588 696.72 439.764 696.13 Z" style="stroke-width: 1; fill: rgb(255, 191, 34); transform-origin: 506.168px 513.444px;"/>
  <path fill="#0C2318" d="M 632.845 837.922 C 633.064 837.926 633.283 837.935 633.503 837.935 C 633.998 837.933 634.519 837.866 635.002 838.023 C 636.185 838.407 637.053 840.126 638.089 840.867 C 640.683 842.724 644.452 843.311 645.823 846.596 C 646.143 847.363 646.3 848.429 645.888 849.192 C 645.108 850.638 642.977 851.539 641.498 851.974 C 641.348 852.018 641.193 852.049 641.042 852.092 C 640.782 852.166 640.525 852.247 640.266 852.325 C 637.992 852.656 635.244 853.383 632.991 852.651 C 630.552 851.859 628.028 848.669 626.89 846.488 C 626.295 845.348 626.085 843.974 626.513 842.745 C 627.39 840.227 630.623 838.942 632.845 837.922 Z" style="stroke-width: 1; transform-origin: 506.168px 513.444px;"/>
  <path d="M 591.475 120.11 C 603.611 120.33 602.499 123.24 612.654 126.64 C 617.553 128.28 626.278 128.2 632.601 130.25 C 642.754 133.56 648.814 138.07 657.939 142.83 C 664.014 146 671.072 149.14 677.266 152.23 C 714.402 170.77 747.181 195.18 777.633 223.25 C 781.448 226.77 793.416 235.863 793.999 240.388 C 794.433 243.753 793.611 262.221 792.42 265.459 C 790.292 271.251 784.359 278.87 781.437 285.196 C 777.738 293.204 776.818 299.569 773.885 307.491 C 772.434 311.409 766.279 316.559 764.14 320.668 C 752.369 343.281 741.031 366.153 729.328 388.798 C 725.834 396.245 722.718 398.458 717.528 404.527 C 718.044 415.449 717.526 415.29 715.61 425.375 C 717.736 428.792 719.607 431.195 720.044 435.497 C 720.782 442.766 711.642 444.786 707.17 440.582 C 705.16 438.693 705.447 433.157 705.472 430.396 C 702.646 427.22 692.407 417.483 691.747 415.446 C 689.048 407.115 687.137 398.04 684.274 389.403 C 680.26 375.843 673.578 362.738 669.444 349.299 C 666.059 338.297 663.82 327.274 659.603 316.375 C 657.269 309.591 655.75 302.282 653.095 295.633 C 639.443 261.44 624.923 227.87 613.085 192.99 C 610.904 186.56 606.118 179.57 603.45 173.19 C 597.68 159.39 591.482 145.59 586.886 131.34 C 584.919 125.21 584.542 121.94 591.475 120.11 Z" style="stroke-width: 1; fill: rgb(104, 62, 80); transform-origin: 506.168px 513.444px;"/>
  <path d="M 906.147 585.037 C 906.583 584.971 907.343 584.832 907.766 584.88 C 908.871 585.004 909.673 585.698 910.165 586.664 C 911.801 589.872 910.421 604.288 909.392 608.005 C 908.05 612.856 905.438 614.15 901.345 616.384 C 898.329 618.03 896.358 620.617 895.493 623.958 C 894.092 629.367 898.422 632.506 900.661 636.828 C 901.943 639.301 902.074 642.606 901.148 645.213 C 898.101 653.798 891.7 661.465 887.135 669.274 C 884.637 673.546 882.814 678.239 880.633 682.68 C 877.93 688.186 874.655 693.43 871.779 698.852 C 869.605 702.951 867.87 707.436 865.466 711.391 C 862.52 716.237 858.135 720.147 855.22 725.026 C 851.697 730.921 848.458 737.353 845.396 743.502 C 843.585 747.139 842.022 751.088 839.74 754.454 C 837.464 757.811 834.267 760.751 831.541 763.761 C 827.058 768.743 822.604 773.75 818.178 778.782 C 814.355 783.166 811.261 788.284 807.017 792.271 C 804.853 794.304 802.465 795.567 799.813 796.822 C 791.634 794.82 783.185 792.896 775.3 789.913 C 761.086 784.537 747.96 776.724 734.105 770.643 C 713.276 761.501 692.07 752.72 671.654 742.662 C 666.659 740.366 653.41 732.413 649.634 731.534 C 647.799 731.106 645.68 731.348 643.794 731.229 C 638.969 730.922 611.147 717.883 608.481 714.398 C 607.577 713.216 607.543 712.643 607.73 711.211 C 612.171 705.463 619.761 708.082 625.527 705.559 C 632.194 702.643 635.855 694.167 643.145 690.705 C 651.521 686.727 661.365 684.31 670.163 681.309 C 686.191 675.843 702.355 669.943 717.934 663.305 C 739.269 654.05 760.478 644.507 781.555 634.679 C 789.549 630.958 797.397 626.884 805.46 623.324 C 827.118 613.923 849.088 605.258 871.333 597.345 C 882.829 593.132 894.395 588.472 906.147 585.037 Z" style="stroke-width: 1; fill: rgb(239, 97, 51); transform-origin: 506.168px 513.444px;"/>
  <path fill="#0C2318" d="M 793.254 737.507 C 793.954 737.494 794.767 737.389 795.38 737.813 C 796.018 738.254 796.31 739.274 796.397 739.994 C 796.69 742.432 795.258 745.634 793.742 747.467 C 791.62 750.032 789.284 750.478 786.135 750.836 C 784.433 749.556 783.281 748.58 782.555 746.499 C 782.099 745.192 781.489 743.023 782.25 741.713 C 782.563 741.173 783.136 740.701 783.745 740.543 C 784.059 740.461 784.377 740.396 784.691 740.313 C 787.078 739.685 789.508 738.91 791.824 738.048 L 793.254 737.507 Z" style="stroke-width: 1; transform-origin: 506.168px 513.444px;"/>
  <path fill="#0C2318" d="M 752.584 735.652 C 753.566 735.237 754.701 735.667 755.162 736.628 C 755.623 737.589 755.248 738.744 754.309 739.25 C 753.661 739.599 752.874 739.564 752.259 739.158 C 751.645 738.752 751.304 738.041 751.372 737.308 C 751.44 736.575 751.905 735.938 752.584 735.652 Z" style="stroke-width: 1; transform-origin: 506.168px 513.444px;"/>
  <path d="M 231.605 238.345 C 236.166 239.045 241.578 241.943 246.08 243.386 C 259.118 247.566 272.656 250.616 285.323 255.871 C 293.801 259.388 299.545 266.787 307.759 270.541 C 317.345 274.922 327.494 278.218 337.232 282.274 C 361.201 292.162 384.968 302.53 408.521 313.372 C 416.117 316.874 428.793 321.737 435.165 326.714 C 435.943 327.322 436.383 327.505 436.516 328.523 C 432.676 331.874 422.719 333.954 417.57 335.706 C 405.191 339.916 392.91 344.62 380.403 348.427 C 360.995 354.334 341.303 359.265 321.974 365.474 C 302.942 371.588 284.988 381.396 266.313 388.631 C 221.162 406.973 174.722 429.023 128.659 445.607 C 127.115 446.163 121.26 445.83 120.091 444.374 C 115.66 438.941 117.086 429.155 117.156 422.622 C 117.187 419.685 118.038 412.468 119.409 410.027 C 121.851 405.677 125.747 403.093 127.739 397.927 C 130.147 391.679 129.896 384.995 132.836 379.015 C 136.613 371.33 143.837 365.616 147.902 358.045 C 157.484 337.088 167.234 315.797 180.191 296.663 C 183.64 291.664 188.682 287.065 192.099 282.152 C 203.233 266.139 216.901 251.281 231.605 238.345 Z" style="stroke-width: 1; fill: rgb(33, 100, 60); transform-origin: 506.168px 513.444px;"/>
  <path d="M 840.049 292.797 C 840.336 292.825 840.624 292.845 840.91 292.879 C 845.497 293.429 847.595 299.785 850.458 302.735 C 852.626 304.97 855.949 306.382 857.739 308.923 C 867.606 322.94 872.488 340.855 878.801 356.634 C 883.236 367.718 890.45 377.554 894.701 388.647 C 896.766 394.035 897.811 399.633 899.2 405.21 C 901.132 412.975 903.344 420.678 905.002 428.509 C 906.122 433.803 906.699 439.193 907.806 444.484 C 908.618 448.36 910.337 452.037 911.442 455.837 C 912.344 458.937 912.655 462.269 913.042 465.468 C 914.597 478.318 913.876 490.666 913.598 503.528 C 913.464 509.683 913.854 516.134 912.819 522.208 C 906.804 525.495 892.51 530.898 885.784 532.13 C 880.094 533.171 874.363 533.001 868.674 534.42 C 862.56 535.946 856.541 538.173 850.535 540.1 C 843.153 542.47 835.708 544.646 828.348 547.081 C 813.283 552.066 799.466 558.577 785.133 565.213 L 749.162 581.665 C 739.301 586.009 729.608 591.047 720.143 596.187 C 715.191 598.877 710.133 602.308 704.896 604.324 C 703.118 605.009 701.613 605.305 699.816 604.473 C 698.888 603.385 698.834 603.218 698.64 601.798 C 700.562 596.058 704.444 590.777 706.81 585.124 C 709.854 577.851 710.746 569.858 714.082 562.833 C 717.932 554.723 723.632 547.082 728.331 539.394 C 734.381 529.494 739.899 519.164 745.353 508.925 C 764.266 472.605 781.881 435.623 798.163 398.05 C 807.586 375.873 815.609 352.923 823.731 330.246 C 827.402 319.995 830.931 307.233 835.836 297.682 C 836.867 295.676 838.394 294.294 840.049 292.797 Z" style="stroke-width: 1; fill: rgb(249, 58, 70); transform-origin: 506.168px 513.444px;"/>
  <path d="M 315.455 424.95 C 316.842 424.88 317.996 425.02 319.198 425.776 C 320.846 426.812 321.606 428.897 321.846 430.734 C 322.022 432.082 321.96 433.516 321.645 434.841 C 320.868 438.112 318.857 441.053 317.861 444.276 C 316.27 449.419 316.339 454.944 314.176 459.953 C 312.272 464.359 309.618 468.533 307.458 472.829 C 303.006 481.683 298.9 490.7 294.245 499.454 C 290.704 506.111 286.668 512.509 283.219 519.207 C 276.163 532.908 268.96 546.749 262.544 560.756 C 260.337 565.574 258.738 570.643 256.501 575.443 C 253.403 582.091 249.857 588.53 246.77 595.193 C 239.503 611.108 232.748 627.252 226.516 643.601 L 207.977 693.57 C 205.086 701.499 195.54 730.63 192.023 735.122 C 191.054 735.444 191.248 735.566 190.405 735.296 C 184.908 733.537 162.398 702.56 159.34 696.166 C 156.32 689.616 154.219 682.942 151.588 676.263 C 149.917 672.022 147.832 667.947 146.281 663.656 C 144.562 658.903 143.315 653.98 141.525 649.251 C 137.97 639.865 132.657 631.173 129.176 621.765 C 125.345 611.413 121.881 599.491 120.377 588.579 C 119.552 582.589 119.566 576.502 118.684 570.52 C 117.498 562.473 115.795 554.667 114.853 546.551 C 114.008 539.279 111.859 522.251 113.792 515.513 C 114.547 512.879 117.491 511.68 119.844 510.698 C 134.184 504.714 149.024 499.573 163.477 493.789 C 177.704 488.095 191.671 481.715 205.91 476.091 C 213.654 473.032 221.689 470.81 229.357 467.527 C 244.051 461.237 259.314 454.761 273.585 447.553 C 278.443 445.1 282.761 441.747 287.536 439.159 C 296.681 434.205 306.225 429.797 315.455 424.95 Z" style="stroke-width: 1; fill: rgb(126, 74, 134); transform-origin: 506.168px 513.444px;"/>
  <path fill="#0C2318" d="M 142.35 511.474 C 144.14 511.611 145.454 512.004 146.998 512.94 C 150.258 514.918 153.674 518.105 154.465 521.998 C 154.515 522.244 154.548 522.493 154.593 522.739 C 155.139 525.726 155.37 529.312 154.422 532.238 C 153.493 535.103 151.581 536.629 149.025 538.003 C 145.004 538.068 142.29 536.942 138.581 535.466 C 137.732 532.508 136.757 529.323 136.552 526.246 C 136.356 523.313 136.702 520.329 136.209 517.418 C 136.109 516.832 136.013 516.246 135.934 515.657 C 138.047 514.098 140.104 512.814 142.35 511.474 Z" style="stroke-width: 1; transform-origin: 506.168px 513.444px;"/>
  <path d="M 323.943 584.944 C 324.449 584.949 324.724 584.936 325.252 585.029 C 326.667 585.279 327.551 585.851 328.32 587.042 C 330.851 590.967 331.635 597.088 333.293 601.567 C 335.334 607.079 338.979 612.69 340.196 618.375 C 341.507 624.5 340.666 630.871 342.567 636.998 C 347.845 654.016 354.661 670.5 360.443 687.338 C 365.139 701.014 368.817 715.092 373.59 728.75 C 376.23 736.303 380.019 743.554 382.963 751.011 C 386.746 760.591 390.145 770.344 394.09 779.857 C 397.083 787.074 400.621 794.056 403.509 801.318 C 407.794 812.094 411.605 823.028 415.66 833.889 C 420.341 846.423 425.993 858.541 431.645 870.66 C 434.392 876.551 437.617 882.535 439.879 888.619 C 440.486 890.253 441.342 892.488 440.774 894.237 C 440.281 895.756 438.937 897.083 437.545 897.797 C 431.089 901.11 414.631 898.389 407.787 896.028 C 405.001 893.007 403.339 888.962 400.046 886.417 C 394.638 882.237 386.352 887.316 379.949 885.644 C 377.762 885.073 375.665 883.602 373.746 882.436 C 364.838 877.105 356.006 871.625 346.773 866.867 C 338.094 862.395 329.08 858.659 320.646 853.705 C 312.525 848.935 305.367 843.001 297.648 837.66 C 291.241 833.227 284.343 829.581 277.878 825.256 C 273.931 822.616 270.38 819.32 266.692 816.331 C 257.314 808.731 245.568 801.016 239.117 790.626 C 235.442 784.709 236.395 778.286 238.104 771.904 C 240.39 763.361 245.856 757.477 249.015 749.494 C 252.525 740.623 255.507 731.522 258.651 722.516 C 260.315 717.748 261.808 712.703 264.022 708.163 C 266.889 702.285 271.417 697.066 274.518 691.196 C 278.739 683.204 282.266 674.672 286.082 666.461 C 290.924 656.041 296.107 645.663 300.462 635.035 C 304.08 626.208 304.869 618.262 307.87 610.318 C 310.831 602.478 315.244 598.379 317.418 589.32 C 319.39 587.438 321.582 586.248 323.943 584.944 Z" style="stroke-width: 1; fill: rgb(62, 62, 62); transform-origin: 506.168px 513.444px;"/>
  <path fill="#75E6A2" d="M 790.434 169.75 C 792.924 170.01 804.479 171.88 805.922 171.29 C 811.804 168.87 818.531 164.32 824.088 161.04 C 821.479 166.23 816.074 178.6 811.133 180.53 C 806.817 180.36 805.922 175.12 800.369 177.27 C 799.215 176.83 798.587 176.41 797.535 175.8 C 794.954 174.61 792.04 172.16 790.434 169.75 Z" style="stroke-width: 1; transform-origin: 506.168px 513.444px;"/>
  <path fill="#024421" d="M 797.535 175.8 C 804.354 175.57 805.879 176.06 811.133 180.53 C 806.817 180.36 805.922 175.12 800.369 177.27 C 799.215 176.83 798.587 176.41 797.535 175.8 Z" style="stroke-width: 1; transform-origin: 506.168px 513.444px;"/>
</svg>